<mxfile host="app.diagrams.net" modified="2021-11-12T03:32:35.755Z" agent="5.0 (Windows NT 10.0; Win64; x64) AppleWebKit/537.36 (KHTML, like Gecko) Chrome/95.0.4638.69 Safari/537.36 Edg/95.0.1020.44" etag="5K2G7Gi1_FAkKhsUBDde" version="15.7.3" type="github">
  <diagram id="C5RBs43oDa-KdzZeNtuy" name="Page-1">
    <mxGraphModel dx="2276" dy="662" grid="1" gridSize="10" guides="1" tooltips="1" connect="1" arrows="1" fold="1" page="1" pageScale="1" pageWidth="827" pageHeight="1169" math="0" shadow="0">
      <root>
        <mxCell id="WIyWlLk6GJQsqaUBKTNV-0" />
        <mxCell id="WIyWlLk6GJQsqaUBKTNV-1" parent="WIyWlLk6GJQsqaUBKTNV-0" />
        <mxCell id="9nkjdTHVfFh-UZPl7NMA-2" style="edgeStyle=orthogonalEdgeStyle;rounded=0;orthogonalLoop=1;jettySize=auto;html=1;entryX=0.5;entryY=0;entryDx=0;entryDy=0;" edge="1" parent="WIyWlLk6GJQsqaUBKTNV-1" source="9nkjdTHVfFh-UZPl7NMA-0" target="9nkjdTHVfFh-UZPl7NMA-1">
          <mxGeometry relative="1" as="geometry" />
        </mxCell>
        <mxCell id="9nkjdTHVfFh-UZPl7NMA-0" value="Bắt đầu" style="ellipse;whiteSpace=wrap;html=1;" vertex="1" parent="WIyWlLk6GJQsqaUBKTNV-1">
          <mxGeometry x="300" y="20" width="120" height="70" as="geometry" />
        </mxCell>
        <mxCell id="9nkjdTHVfFh-UZPl7NMA-5" style="edgeStyle=orthogonalEdgeStyle;rounded=0;orthogonalLoop=1;jettySize=auto;html=1;entryX=0.5;entryY=0;entryDx=0;entryDy=0;" edge="1" parent="WIyWlLk6GJQsqaUBKTNV-1" source="9nkjdTHVfFh-UZPl7NMA-1" target="9nkjdTHVfFh-UZPl7NMA-3">
          <mxGeometry relative="1" as="geometry" />
        </mxCell>
        <mxCell id="9nkjdTHVfFh-UZPl7NMA-1" value="INPUT&lt;br&gt;Số tiến trình:n&lt;br&gt;P[i].ID, P[i].Arrival, P[i].Burst" style="shape=parallelogram;perimeter=parallelogramPerimeter;whiteSpace=wrap;html=1;fixedSize=1;" vertex="1" parent="WIyWlLk6GJQsqaUBKTNV-1">
          <mxGeometry x="262" y="140" width="196" height="60" as="geometry" />
        </mxCell>
        <mxCell id="9nkjdTHVfFh-UZPl7NMA-6" style="edgeStyle=orthogonalEdgeStyle;rounded=0;orthogonalLoop=1;jettySize=auto;html=1;entryX=0.5;entryY=0;entryDx=0;entryDy=0;" edge="1" parent="WIyWlLk6GJQsqaUBKTNV-1" source="9nkjdTHVfFh-UZPl7NMA-3" target="9nkjdTHVfFh-UZPl7NMA-4">
          <mxGeometry relative="1" as="geometry" />
        </mxCell>
        <mxCell id="9nkjdTHVfFh-UZPl7NMA-3" value="i=0" style="rounded=0;whiteSpace=wrap;html=1;" vertex="1" parent="WIyWlLk6GJQsqaUBKTNV-1">
          <mxGeometry x="320" y="240" width="80" height="40" as="geometry" />
        </mxCell>
        <mxCell id="9nkjdTHVfFh-UZPl7NMA-8" style="edgeStyle=orthogonalEdgeStyle;rounded=0;orthogonalLoop=1;jettySize=auto;html=1;" edge="1" parent="WIyWlLk6GJQsqaUBKTNV-1" source="9nkjdTHVfFh-UZPl7NMA-4" target="9nkjdTHVfFh-UZPl7NMA-7">
          <mxGeometry relative="1" as="geometry" />
        </mxCell>
        <mxCell id="9nkjdTHVfFh-UZPl7NMA-17" style="edgeStyle=orthogonalEdgeStyle;rounded=0;orthogonalLoop=1;jettySize=auto;html=1;entryX=0.5;entryY=0;entryDx=0;entryDy=0;" edge="1" parent="WIyWlLk6GJQsqaUBKTNV-1" source="9nkjdTHVfFh-UZPl7NMA-4" target="9nkjdTHVfFh-UZPl7NMA-16">
          <mxGeometry relative="1" as="geometry" />
        </mxCell>
        <mxCell id="9nkjdTHVfFh-UZPl7NMA-4" value="i&amp;lt;n" style="rhombus;whiteSpace=wrap;html=1;" vertex="1" parent="WIyWlLk6GJQsqaUBKTNV-1">
          <mxGeometry x="320" y="320" width="80" height="50" as="geometry" />
        </mxCell>
        <mxCell id="9nkjdTHVfFh-UZPl7NMA-12" style="edgeStyle=orthogonalEdgeStyle;rounded=0;orthogonalLoop=1;jettySize=auto;html=1;entryX=0.5;entryY=1;entryDx=0;entryDy=0;" edge="1" parent="WIyWlLk6GJQsqaUBKTNV-1" source="9nkjdTHVfFh-UZPl7NMA-7" target="9nkjdTHVfFh-UZPl7NMA-11">
          <mxGeometry relative="1" as="geometry" />
        </mxCell>
        <mxCell id="9nkjdTHVfFh-UZPl7NMA-7" value="Sắp xếp theo Arrival" style="rounded=0;whiteSpace=wrap;html=1;" vertex="1" parent="WIyWlLk6GJQsqaUBKTNV-1">
          <mxGeometry x="490" y="315" width="120" height="60" as="geometry" />
        </mxCell>
        <mxCell id="9nkjdTHVfFh-UZPl7NMA-9" value="Đúng" style="text;html=1;strokeColor=none;fillColor=none;align=center;verticalAlign=middle;whiteSpace=wrap;rounded=0;" vertex="1" parent="WIyWlLk6GJQsqaUBKTNV-1">
          <mxGeometry x="414" y="315" width="60" height="30" as="geometry" />
        </mxCell>
        <mxCell id="9nkjdTHVfFh-UZPl7NMA-13" style="edgeStyle=orthogonalEdgeStyle;rounded=0;orthogonalLoop=1;jettySize=auto;html=1;" edge="1" parent="WIyWlLk6GJQsqaUBKTNV-1" source="9nkjdTHVfFh-UZPl7NMA-11">
          <mxGeometry relative="1" as="geometry">
            <mxPoint x="360" y="300" as="targetPoint" />
            <Array as="points">
              <mxPoint x="460" y="250" />
              <mxPoint x="460" y="300" />
            </Array>
          </mxGeometry>
        </mxCell>
        <mxCell id="9nkjdTHVfFh-UZPl7NMA-11" value="i++" style="rounded=0;whiteSpace=wrap;html=1;" vertex="1" parent="WIyWlLk6GJQsqaUBKTNV-1">
          <mxGeometry x="515" y="230" width="70" height="40" as="geometry" />
        </mxCell>
        <mxCell id="9nkjdTHVfFh-UZPl7NMA-15" value="Sai" style="text;html=1;strokeColor=none;fillColor=none;align=center;verticalAlign=middle;whiteSpace=wrap;rounded=0;" vertex="1" parent="WIyWlLk6GJQsqaUBKTNV-1">
          <mxGeometry x="360" y="375" width="60" height="30" as="geometry" />
        </mxCell>
        <mxCell id="9nkjdTHVfFh-UZPl7NMA-20" style="edgeStyle=orthogonalEdgeStyle;rounded=0;orthogonalLoop=1;jettySize=auto;html=1;" edge="1" parent="WIyWlLk6GJQsqaUBKTNV-1" source="9nkjdTHVfFh-UZPl7NMA-16" target="9nkjdTHVfFh-UZPl7NMA-22">
          <mxGeometry relative="1" as="geometry">
            <mxPoint x="360" y="510" as="targetPoint" />
          </mxGeometry>
        </mxCell>
        <mxCell id="9nkjdTHVfFh-UZPl7NMA-16" value="P[i].Doi, P[i].BatDau, P[i].KetThuc, P[i].HoanThanh" style="rounded=0;whiteSpace=wrap;html=1;align=center;" vertex="1" parent="WIyWlLk6GJQsqaUBKTNV-1">
          <mxGeometry x="295" y="420" width="130" height="50" as="geometry" />
        </mxCell>
        <mxCell id="9nkjdTHVfFh-UZPl7NMA-28" style="edgeStyle=orthogonalEdgeStyle;rounded=0;orthogonalLoop=1;jettySize=auto;html=1;entryX=0.5;entryY=0;entryDx=0;entryDy=0;" edge="1" parent="WIyWlLk6GJQsqaUBKTNV-1" source="9nkjdTHVfFh-UZPl7NMA-21" target="9nkjdTHVfFh-UZPl7NMA-27">
          <mxGeometry relative="1" as="geometry" />
        </mxCell>
        <mxCell id="9nkjdTHVfFh-UZPl7NMA-36" style="edgeStyle=orthogonalEdgeStyle;rounded=0;orthogonalLoop=1;jettySize=auto;html=1;entryX=1;entryY=0.5;entryDx=0;entryDy=0;" edge="1" parent="WIyWlLk6GJQsqaUBKTNV-1" source="9nkjdTHVfFh-UZPl7NMA-21" target="9nkjdTHVfFh-UZPl7NMA-35">
          <mxGeometry relative="1" as="geometry" />
        </mxCell>
        <mxCell id="9nkjdTHVfFh-UZPl7NMA-21" value="i&amp;lt;n" style="rhombus;whiteSpace=wrap;html=1;align=center;" vertex="1" parent="WIyWlLk6GJQsqaUBKTNV-1">
          <mxGeometry x="307.5" y="585" width="105" height="40" as="geometry" />
        </mxCell>
        <mxCell id="9nkjdTHVfFh-UZPl7NMA-26" style="edgeStyle=orthogonalEdgeStyle;rounded=0;orthogonalLoop=1;jettySize=auto;html=1;entryX=0.5;entryY=0;entryDx=0;entryDy=0;" edge="1" parent="WIyWlLk6GJQsqaUBKTNV-1" source="9nkjdTHVfFh-UZPl7NMA-22" target="9nkjdTHVfFh-UZPl7NMA-21">
          <mxGeometry relative="1" as="geometry" />
        </mxCell>
        <mxCell id="9nkjdTHVfFh-UZPl7NMA-22" value="i=0" style="rounded=0;whiteSpace=wrap;html=1;align=center;" vertex="1" parent="WIyWlLk6GJQsqaUBKTNV-1">
          <mxGeometry x="326.25" y="520" width="67.5" height="30" as="geometry" />
        </mxCell>
        <mxCell id="9nkjdTHVfFh-UZPl7NMA-30" style="edgeStyle=orthogonalEdgeStyle;rounded=0;orthogonalLoop=1;jettySize=auto;html=1;" edge="1" parent="WIyWlLk6GJQsqaUBKTNV-1" source="9nkjdTHVfFh-UZPl7NMA-27" target="9nkjdTHVfFh-UZPl7NMA-29">
          <mxGeometry relative="1" as="geometry" />
        </mxCell>
        <mxCell id="9nkjdTHVfFh-UZPl7NMA-41" style="edgeStyle=orthogonalEdgeStyle;rounded=0;orthogonalLoop=1;jettySize=auto;html=1;entryX=1;entryY=0.5;entryDx=0;entryDy=0;" edge="1" parent="WIyWlLk6GJQsqaUBKTNV-1" source="9nkjdTHVfFh-UZPl7NMA-27" target="9nkjdTHVfFh-UZPl7NMA-40">
          <mxGeometry relative="1" as="geometry" />
        </mxCell>
        <mxCell id="9nkjdTHVfFh-UZPl7NMA-27" value="i==0" style="rhombus;whiteSpace=wrap;html=1;align=center;" vertex="1" parent="WIyWlLk6GJQsqaUBKTNV-1">
          <mxGeometry x="309.38" y="660" width="101.25" height="50" as="geometry" />
        </mxCell>
        <mxCell id="9nkjdTHVfFh-UZPl7NMA-44" style="edgeStyle=orthogonalEdgeStyle;rounded=0;orthogonalLoop=1;jettySize=auto;html=1;" edge="1" parent="WIyWlLk6GJQsqaUBKTNV-1" source="9nkjdTHVfFh-UZPl7NMA-29" target="9nkjdTHVfFh-UZPl7NMA-43">
          <mxGeometry relative="1" as="geometry" />
        </mxCell>
        <mxCell id="9nkjdTHVfFh-UZPl7NMA-29" value="P[i].BatDau = P[i].Arrival;&lt;br&gt;P[i].Doi = P[i].BatDau - P[i].Arrival;&lt;br&gt;P[i].KetThuc = P[i].BatDau + P[i].Burst;&lt;br&gt;P[i].HoanThanh = P[i].Doi + P[i].Burst;" style="rounded=0;whiteSpace=wrap;html=1;" vertex="1" parent="WIyWlLk6GJQsqaUBKTNV-1">
          <mxGeometry x="490" y="645" width="279.99" height="80" as="geometry" />
        </mxCell>
        <mxCell id="9nkjdTHVfFh-UZPl7NMA-33" value="Đúng" style="text;html=1;strokeColor=none;fillColor=none;align=center;verticalAlign=middle;whiteSpace=wrap;rounded=0;" vertex="1" parent="WIyWlLk6GJQsqaUBKTNV-1">
          <mxGeometry x="370" y="625" width="60" height="30" as="geometry" />
        </mxCell>
        <mxCell id="9nkjdTHVfFh-UZPl7NMA-34" value="Đúng" style="text;html=1;strokeColor=none;fillColor=none;align=center;verticalAlign=middle;whiteSpace=wrap;rounded=0;" vertex="1" parent="WIyWlLk6GJQsqaUBKTNV-1">
          <mxGeometry x="420" y="695" width="60" height="30" as="geometry" />
        </mxCell>
        <mxCell id="9nkjdTHVfFh-UZPl7NMA-39" style="edgeStyle=orthogonalEdgeStyle;rounded=0;orthogonalLoop=1;jettySize=auto;html=1;entryX=1;entryY=0.5;entryDx=0;entryDy=0;" edge="1" parent="WIyWlLk6GJQsqaUBKTNV-1" source="9nkjdTHVfFh-UZPl7NMA-35" target="9nkjdTHVfFh-UZPl7NMA-38">
          <mxGeometry relative="1" as="geometry" />
        </mxCell>
        <mxCell id="9nkjdTHVfFh-UZPl7NMA-35" value="OUTPUT" style="shape=parallelogram;perimeter=parallelogramPerimeter;whiteSpace=wrap;html=1;fixedSize=1;" vertex="1" parent="WIyWlLk6GJQsqaUBKTNV-1">
          <mxGeometry x="30" y="575" width="120" height="60" as="geometry" />
        </mxCell>
        <mxCell id="9nkjdTHVfFh-UZPl7NMA-37" value="Sai" style="text;html=1;strokeColor=none;fillColor=none;align=center;verticalAlign=middle;whiteSpace=wrap;rounded=0;" vertex="1" parent="WIyWlLk6GJQsqaUBKTNV-1">
          <mxGeometry x="202" y="570" width="60" height="30" as="geometry" />
        </mxCell>
        <mxCell id="9nkjdTHVfFh-UZPl7NMA-38" value="Kết thúc" style="ellipse;whiteSpace=wrap;html=1;" vertex="1" parent="WIyWlLk6GJQsqaUBKTNV-1">
          <mxGeometry x="-180" y="565" width="120" height="80" as="geometry" />
        </mxCell>
        <mxCell id="9nkjdTHVfFh-UZPl7NMA-47" style="edgeStyle=orthogonalEdgeStyle;rounded=0;orthogonalLoop=1;jettySize=auto;html=1;entryX=0.5;entryY=0;entryDx=0;entryDy=0;" edge="1" parent="WIyWlLk6GJQsqaUBKTNV-1" source="9nkjdTHVfFh-UZPl7NMA-40" target="9nkjdTHVfFh-UZPl7NMA-46">
          <mxGeometry relative="1" as="geometry" />
        </mxCell>
        <mxCell id="9nkjdTHVfFh-UZPl7NMA-40" value="h=k=i" style="rounded=0;whiteSpace=wrap;html=1;" vertex="1" parent="WIyWlLk6GJQsqaUBKTNV-1">
          <mxGeometry x="10" y="662.5" width="90" height="45" as="geometry" />
        </mxCell>
        <mxCell id="9nkjdTHVfFh-UZPl7NMA-42" value="Sai" style="text;html=1;strokeColor=none;fillColor=none;align=center;verticalAlign=middle;whiteSpace=wrap;rounded=0;" vertex="1" parent="WIyWlLk6GJQsqaUBKTNV-1">
          <mxGeometry x="230" y="655" width="60" height="30" as="geometry" />
        </mxCell>
        <mxCell id="9nkjdTHVfFh-UZPl7NMA-45" style="edgeStyle=orthogonalEdgeStyle;rounded=0;orthogonalLoop=1;jettySize=auto;html=1;entryX=1;entryY=0.5;entryDx=0;entryDy=0;" edge="1" parent="WIyWlLk6GJQsqaUBKTNV-1" source="9nkjdTHVfFh-UZPl7NMA-43" target="9nkjdTHVfFh-UZPl7NMA-21">
          <mxGeometry relative="1" as="geometry">
            <Array as="points">
              <mxPoint x="600" y="605" />
            </Array>
          </mxGeometry>
        </mxCell>
        <mxCell id="9nkjdTHVfFh-UZPl7NMA-43" value="i++" style="rounded=0;whiteSpace=wrap;html=1;" vertex="1" parent="WIyWlLk6GJQsqaUBKTNV-1">
          <mxGeometry x="589.99" y="585" width="80" height="40" as="geometry" />
        </mxCell>
        <mxCell id="9nkjdTHVfFh-UZPl7NMA-49" style="edgeStyle=orthogonalEdgeStyle;rounded=0;orthogonalLoop=1;jettySize=auto;html=1;entryX=0.5;entryY=0;entryDx=0;entryDy=0;" edge="1" parent="WIyWlLk6GJQsqaUBKTNV-1" source="9nkjdTHVfFh-UZPl7NMA-46" target="9nkjdTHVfFh-UZPl7NMA-48">
          <mxGeometry relative="1" as="geometry" />
        </mxCell>
        <mxCell id="9nkjdTHVfFh-UZPl7NMA-57" style="edgeStyle=orthogonalEdgeStyle;rounded=0;orthogonalLoop=1;jettySize=auto;html=1;" edge="1" parent="WIyWlLk6GJQsqaUBKTNV-1" source="9nkjdTHVfFh-UZPl7NMA-46" target="9nkjdTHVfFh-UZPl7NMA-64">
          <mxGeometry relative="1" as="geometry">
            <mxPoint x="290" y="793" as="targetPoint" />
            <Array as="points">
              <mxPoint x="275" y="793" />
            </Array>
          </mxGeometry>
        </mxCell>
        <mxCell id="9nkjdTHVfFh-UZPl7NMA-46" value="P[k].Arrival &amp;lt;=P[i-1].KetThuc" style="rhombus;whiteSpace=wrap;html=1;" vertex="1" parent="WIyWlLk6GJQsqaUBKTNV-1">
          <mxGeometry x="-55" y="755" width="220" height="75" as="geometry" />
        </mxCell>
        <mxCell id="9nkjdTHVfFh-UZPl7NMA-51" style="edgeStyle=orthogonalEdgeStyle;rounded=0;orthogonalLoop=1;jettySize=auto;html=1;entryX=0.5;entryY=0;entryDx=0;entryDy=0;" edge="1" parent="WIyWlLk6GJQsqaUBKTNV-1" source="9nkjdTHVfFh-UZPl7NMA-48" target="9nkjdTHVfFh-UZPl7NMA-50">
          <mxGeometry relative="1" as="geometry" />
        </mxCell>
        <mxCell id="9nkjdTHVfFh-UZPl7NMA-48" value="k++" style="rounded=0;whiteSpace=wrap;html=1;" vertex="1" parent="WIyWlLk6GJQsqaUBKTNV-1">
          <mxGeometry x="12.5" y="870" width="85" height="40" as="geometry" />
        </mxCell>
        <mxCell id="9nkjdTHVfFh-UZPl7NMA-53" style="edgeStyle=orthogonalEdgeStyle;rounded=0;orthogonalLoop=1;jettySize=auto;html=1;" edge="1" parent="WIyWlLk6GJQsqaUBKTNV-1" source="9nkjdTHVfFh-UZPl7NMA-50">
          <mxGeometry relative="1" as="geometry">
            <mxPoint x="55" y="730" as="targetPoint" />
            <Array as="points">
              <mxPoint x="-180" y="975" />
            </Array>
          </mxGeometry>
        </mxCell>
        <mxCell id="9nkjdTHVfFh-UZPl7NMA-58" style="edgeStyle=orthogonalEdgeStyle;rounded=0;orthogonalLoop=1;jettySize=auto;html=1;entryX=0;entryY=0.5;entryDx=0;entryDy=0;" edge="1" parent="WIyWlLk6GJQsqaUBKTNV-1" source="9nkjdTHVfFh-UZPl7NMA-50" target="9nkjdTHVfFh-UZPl7NMA-56">
          <mxGeometry relative="1" as="geometry" />
        </mxCell>
        <mxCell id="9nkjdTHVfFh-UZPl7NMA-50" value="k&amp;lt;n" style="rhombus;whiteSpace=wrap;html=1;" vertex="1" parent="WIyWlLk6GJQsqaUBKTNV-1">
          <mxGeometry x="15" y="950" width="80" height="50" as="geometry" />
        </mxCell>
        <mxCell id="9nkjdTHVfFh-UZPl7NMA-54" value="Đúng" style="text;html=1;strokeColor=none;fillColor=none;align=center;verticalAlign=middle;whiteSpace=wrap;rounded=0;" vertex="1" parent="WIyWlLk6GJQsqaUBKTNV-1">
          <mxGeometry x="-90" y="940" width="60" height="30" as="geometry" />
        </mxCell>
        <mxCell id="9nkjdTHVfFh-UZPl7NMA-55" value="Đúng" style="text;html=1;strokeColor=none;fillColor=none;align=center;verticalAlign=middle;whiteSpace=wrap;rounded=0;" vertex="1" parent="WIyWlLk6GJQsqaUBKTNV-1">
          <mxGeometry x="70" y="830" width="60" height="30" as="geometry" />
        </mxCell>
        <mxCell id="9nkjdTHVfFh-UZPl7NMA-70" style="edgeStyle=orthogonalEdgeStyle;rounded=0;orthogonalLoop=1;jettySize=auto;html=1;entryX=0;entryY=0.5;entryDx=0;entryDy=0;" edge="1" parent="WIyWlLk6GJQsqaUBKTNV-1" source="9nkjdTHVfFh-UZPl7NMA-56" target="9nkjdTHVfFh-UZPl7NMA-69">
          <mxGeometry relative="1" as="geometry" />
        </mxCell>
        <mxCell id="9nkjdTHVfFh-UZPl7NMA-56" value="Sắp xếp tiến trình từ P[h] đến P[k] theo BustTime" style="rounded=0;whiteSpace=wrap;html=1;" vertex="1" parent="WIyWlLk6GJQsqaUBKTNV-1">
          <mxGeometry x="180" y="945" width="190" height="60" as="geometry" />
        </mxCell>
        <mxCell id="9nkjdTHVfFh-UZPl7NMA-59" value="Sai" style="text;html=1;strokeColor=none;fillColor=none;align=center;verticalAlign=middle;whiteSpace=wrap;rounded=0;" vertex="1" parent="WIyWlLk6GJQsqaUBKTNV-1">
          <mxGeometry x="110" y="940" width="60" height="30" as="geometry" />
        </mxCell>
        <mxCell id="9nkjdTHVfFh-UZPl7NMA-60" value="Sai" style="text;html=1;strokeColor=none;fillColor=none;align=center;verticalAlign=middle;whiteSpace=wrap;rounded=0;" vertex="1" parent="WIyWlLk6GJQsqaUBKTNV-1">
          <mxGeometry y="1010" width="60" height="30" as="geometry" />
        </mxCell>
        <mxCell id="9nkjdTHVfFh-UZPl7NMA-63" value="Sai" style="text;html=1;strokeColor=none;fillColor=none;align=center;verticalAlign=middle;whiteSpace=wrap;rounded=0;" vertex="1" parent="WIyWlLk6GJQsqaUBKTNV-1">
          <mxGeometry x="180" y="762.5" width="60" height="30" as="geometry" />
        </mxCell>
        <mxCell id="9nkjdTHVfFh-UZPl7NMA-65" style="edgeStyle=orthogonalEdgeStyle;rounded=0;orthogonalLoop=1;jettySize=auto;html=1;entryX=0.5;entryY=1;entryDx=0;entryDy=0;" edge="1" parent="WIyWlLk6GJQsqaUBKTNV-1" source="9nkjdTHVfFh-UZPl7NMA-64" target="9nkjdTHVfFh-UZPl7NMA-29">
          <mxGeometry relative="1" as="geometry" />
        </mxCell>
        <mxCell id="9nkjdTHVfFh-UZPl7NMA-67" style="edgeStyle=orthogonalEdgeStyle;rounded=0;orthogonalLoop=1;jettySize=auto;html=1;entryX=0.75;entryY=0;entryDx=0;entryDy=0;" edge="1" parent="WIyWlLk6GJQsqaUBKTNV-1" source="9nkjdTHVfFh-UZPl7NMA-64" target="9nkjdTHVfFh-UZPl7NMA-56">
          <mxGeometry relative="1" as="geometry" />
        </mxCell>
        <mxCell id="9nkjdTHVfFh-UZPl7NMA-64" value="i==k" style="rhombus;whiteSpace=wrap;html=1;" vertex="1" parent="WIyWlLk6GJQsqaUBKTNV-1">
          <mxGeometry x="280" y="762.5" width="80" height="60" as="geometry" />
        </mxCell>
        <mxCell id="9nkjdTHVfFh-UZPl7NMA-66" value="Đúng" style="text;html=1;strokeColor=none;fillColor=none;align=center;verticalAlign=middle;whiteSpace=wrap;rounded=0;" vertex="1" parent="WIyWlLk6GJQsqaUBKTNV-1">
          <mxGeometry x="430" y="755" width="60" height="30" as="geometry" />
        </mxCell>
        <mxCell id="9nkjdTHVfFh-UZPl7NMA-68" value="Sai" style="text;html=1;strokeColor=none;fillColor=none;align=center;verticalAlign=middle;whiteSpace=wrap;rounded=0;" vertex="1" parent="WIyWlLk6GJQsqaUBKTNV-1">
          <mxGeometry x="266.25" y="860" width="60" height="30" as="geometry" />
        </mxCell>
        <mxCell id="9nkjdTHVfFh-UZPl7NMA-71" style="edgeStyle=orthogonalEdgeStyle;rounded=0;orthogonalLoop=1;jettySize=auto;html=1;entryX=1;entryY=0.5;entryDx=0;entryDy=0;" edge="1" parent="WIyWlLk6GJQsqaUBKTNV-1" source="9nkjdTHVfFh-UZPl7NMA-69" target="9nkjdTHVfFh-UZPl7NMA-43">
          <mxGeometry relative="1" as="geometry">
            <Array as="points">
              <mxPoint x="820" y="975" />
              <mxPoint x="820" y="605" />
            </Array>
          </mxGeometry>
        </mxCell>
        <mxCell id="9nkjdTHVfFh-UZPl7NMA-69" value="P[i].BatDau = P[i-1].KetThuc;&lt;br&gt;P[i].Doi = P[i].BatDau - P[i].Arrival;&lt;br&gt;P[i].KetThuc = P[i].BatDau + P[i].Burst;&lt;br&gt;P[i].HoanThanh = P[i].Doi + P[i].Burst;" style="rounded=0;whiteSpace=wrap;html=1;" vertex="1" parent="WIyWlLk6GJQsqaUBKTNV-1">
          <mxGeometry x="480" y="935" width="279.99" height="80" as="geometry" />
        </mxCell>
      </root>
    </mxGraphModel>
  </diagram>
</mxfile>
